<?xml version="1.0" encoding="UTF-8"?>
<svg version="1.1" xmlns="http://www.w3.org/2000/svg" width="36" height="40">
<path d="M0 0 C0.99 0.33 1.98 0.66 3 1 C3 1.99 3 2.98 3 4 C6.96 4 10.92 4 15 4 C15.33 2.68 15.66 1.36 16 0 C16.99 0.33 17.98 0.66 19 1 C19 1.99 19 2.98 19 4 C20.423125 4.1546875 20.423125 4.1546875 21.875 4.3125 C25 5 25 5 27 8 C27.47252607 12.63115255 27.37035898 17.28487521 27.375 21.9375 C27.39949219 23.22591797 27.42398438 24.51433594 27.44921875 25.84179688 C27.45501953 27.69708008 27.45501953 27.69708008 27.4609375 29.58984375 C27.46915527 30.72284912 27.47737305 31.85585449 27.48583984 33.02319336 C27 36 27 36 25.36962891 38.36743164 C22.29244789 40.48747176 20.34601937 40.51634889 16.625 40.53125 C15.39265625 40.53640625 14.1603125 40.5415625 12.890625 40.546875 C11.60671875 40.53140625 10.3228125 40.5159375 9 40.5 C7.07414062 40.52320312 7.07414062 40.52320312 5.109375 40.546875 C3.87703125 40.54171875 2.6446875 40.5365625 1.375 40.53125 C-0.31496094 40.52448242 -0.31496094 40.52448242 -2.0390625 40.51757812 C-5 40 -5 40 -7.36523438 38.36523438 C-9.49001472 35.29103008 -9.51634887 33.34602407 -9.53125 29.625 C-9.53640625 28.39265625 -9.5415625 27.1603125 -9.546875 25.890625 C-9.53140625 24.60671875 -9.5159375 23.3228125 -9.5 22 C-9.51546875 20.71609375 -9.5309375 19.4321875 -9.546875 18.109375 C-9.54171875 16.87703125 -9.5365625 15.6446875 -9.53125 14.375 C-9.52673828 13.24835937 -9.52222656 12.12171875 -9.51757812 10.9609375 C-8.88633202 7.34973335 -7.95008241 6.13133707 -5 4 C-3.68 4 -2.36 4 -1 4 C-0.67 2.68 -0.34 1.36 0 0 Z M-4 8 C-4.33 9.32 -4.66 10.64 -5 12 C4.24 12 13.48 12 23 12 C22.67 10.68 22.34 9.36 22 8 C13.42 8 4.84 8 -4 8 Z M-5 16 C-5.020625 19.114375 -5.04125 22.22875 -5.0625 25.4375 C-5.071604 26.42032959 -5.08070801 27.40315918 -5.09008789 28.41577148 C-5.09258545 29.18477783 -5.09508301 29.95378418 -5.09765625 30.74609375 C-5.10289307 31.53685303 -5.10812988 32.3276123 -5.11352539 33.14233398 C-5.20495909 35.01592689 -5.20495909 35.01592689 -4 36 C-2.08541718 36.09971786 -0.16717683 36.13080589 1.75 36.1328125 C3.49796875 36.13474609 3.49796875 36.13474609 5.28125 36.13671875 C7.12203125 36.13091797 7.12203125 36.13091797 9 36.125 C10.2271875 36.12886719 11.454375 36.13273437 12.71875 36.13671875 C13.8840625 36.13542969 15.049375 36.13414063 16.25 36.1328125 C17.32765625 36.13168457 18.4053125 36.13055664 19.515625 36.12939453 C21.94219997 36.28092371 21.94219997 36.28092371 23 35 C23.08651611 33.58429877 23.10704904 32.164405 23.09765625 30.74609375 C23.09515869 29.9770874 23.09266113 29.20808105 23.09008789 28.41577148 C23.08098389 27.43294189 23.07187988 26.4501123 23.0625 25.4375 C23.041875 22.323125 23.02125 19.20875 23 16 C13.76 16 4.52 16 -5 16 Z " fill="#BBBBBB" transform="translate(9,0)"/>
</svg>
