<?xml version="1.0" encoding="UTF-8"?>
<svg version="1.1" xmlns="http://www.w3.org/2000/svg" width="20" height="25">
<path d="M0 0 C4.31392226 0.4793247 6.16569547 1.7457985 9 5 C11.23490519 3.99814595 12.82569289 3.1888327 14.5 1.375 C16 0 16 0 20 0 C19.87936693 3.98089145 18.36106966 6.04870117 15.75 8.875 C12.45133438 11.93229984 12.45133438 11.93229984 9.5 12.375 C5.71030999 10.2906705 2.53005964 7.52166803 0 4 C0 2.68 0 1.36 0 0 Z " fill="#212121" transform="translate(0,13)"/>
<path d="M0 0 C4.31392226 0.4793247 6.16569547 1.7457985 9 5 C11.23490519 3.99814595 12.82569289 3.1888327 14.5 1.375 C16 -0 16 -0 20 0 C19.87936693 3.98089145 18.36106966 6.04870117 15.75 8.875 C12.45133438 11.93229984 12.45133438 11.93229984 9.5 12.375 C5.71030999 10.2906705 2.53005964 7.52166803 0 4 C0 2.68 0 1.36 0 0 Z " fill="#212121" transform="translate(0,1)"/>
</svg>
